<svg xmlns="http://www.w3.org/2000/svg" fill="none" viewBox="0 0 1024 1024" height="1024" width="1024">
  <path fill="blue" d="M144.769 264.645C149.08 264.632 152.126 266.515 154.94 269.449C213.673 330.71 276.617 387.917 331.507 452.878C376.21 505.783 415.597 562.28 447.308 623.983C450.483 630.16 454.121 636.103 457.684 642.069C458.15 642.848 459.466 643.118 462.349 644.699V527.877C468.062 531.183 466.802 534.858 466.871 537.822C467.172 550.634 467.748 563.41 470.194 576.024C470.723 578.75 470.836 581.887 472.302 584.045C481.608 597.741 479.9 613.26 479.938 628.421C480.101 695.238 480.103 762.055 480.138 828.872C480.144 840.053 478.488 841.763 467.305 842.603C454.065 843.596 449.418 840.379 445.548 827.639C425.149 760.479 396.498 697.001 360.837 636.581C346.958 613.066 332.23 590.154 315.851 567.58C285.516 523.362 250.557 483.696 215.353 444.204C180.326 404.91 143.39 367.494 105.42 331.076C103.151 328.9 101.113 324.874 97.3083 326.449C93.1528 328.17 94.4279 332.688 94.4271 336.127C94.3998 437.19 93.7727 538.261 94.8236 639.314C95.2341 678.793 94.0027 718.366 97.46 757.809C98.8017 773.114 101.119 788.19 106.014 802.774C111.762 819.899 123.261 828.556 141.258 829.655C143.475 829.791 145.713 829.869 147.894 830.246C150.856 830.758 151.881 833.056 152.121 835.718C152.343 838.187 151.211 840.084 148.956 841.087C145.608 842.575 142.061 843.13 138.385 843.17C104.998 843.541 71.5808 841.836 38.2264 844.73C32.9356 845.189 27.6409 844.559 22.951 841.532C20.3801 839.873 19.0257 837.647 19.4384 834.53C19.8998 831.047 22.5406 830.198 25.4112 829.77C27.058 829.524 28.7421 829.536 30.4052 829.388C46.8091 827.921 58.6138 820.272 64.7883 804.493C71.154 788.226 73.8723 771.245 75.0192 753.991C78.8647 696.146 76.2545 638.228 76.6001 580.345C77.0074 512.137 76.9827 443.921 76.4533 375.715C76.2807 353.488 73.9668 331.297 67.5553 309.75C61.3584 288.924 48.099 276.534 26.2221 273.99C23.0373 273.619 19.799 273.309 20.1286 268.948C20.4615 264.544 23.9821 264.81 27.0036 264.804C66.2587 264.738 105.514 264.757 144.769 264.645Z"></path>
  <path fill="pink" d="M554.385 424.696C556.402 426.927 554.494 428.866 553.84 430.765C533.165 490.802 528.162 552.036 542.335 614.026C551.932 656.005 572.187 692.914 601.97 724.334C619.905 743.256 640.253 759.032 663.05 771.704C667.921 774.411 671.572 774.742 675.043 769.52C693.214 742.182 713.726 716.396 729.911 687.746C752.301 648.109 754.196 608.323 728.331 569.508C711.411 544.116 687.195 526.81 660.423 512.985C650.402 507.81 640.03 503.314 629.731 498.468C631.352 495.341 633.594 496.564 635.108 497.042C667.929 507.4 699.428 520.204 725.972 543.165C767.371 578.976 779.966 629.849 760.016 683.303C758.849 686.431 757.576 689.521 756.109 693.217C743.902 719.695 726.796 742.514 712.25 766.86C705.267 778.548 698.502 790.396 690.914 801.684C683.943 812.053 677.814 813.037 666.713 807.394C591.353 769.088 541.958 709.263 522.626 627.009C506.537 558.547 518.85 492.754 549.774 430.147C550.627 428.419 551.76 426.82 552.872 425.238C553.116 424.892 553.834 424.879 554.385 424.696Z"></path>
  <path fill="red" d="M741.313 180.666C743.865 179.825 746.348 178.175 750.309 179.872C710.223 211.426 665.704 236.296 629.757 273.074C598.432 303.55 568.517 334.263 546.96 372.308C516.746 425.63 498.55 482.557 491.851 543.345C490.905 551.924 490.043 560.477 489.938 569.112C489.91 571.42 490.816 574.22 486.985 576.307C483.476 567.513 483.746 558.31 483.018 549.525C475.398 457.543 501.179 375.587 559.207 304.17C596.272 258.555 642.454 224.123 695.882 199.567C710.786 192.717 725.693 185.815 741.313 180.666Z"></path>
  <path fill="purple" d="M767.666 212.447C797.885 203.538 828.697 203.508 859.567 204.786C900.235 206.469 940.335 213.126 980.151 221.279C1001.09 225.566 1007.36 235.402 1003.61 256.67C1000.19 276.108 997.853 295.885 992.559 314.819C976.701 371.529 956.034 426.19 910.274 466.542C866.905 504.785 816.28 523.913 757.828 519.752C710.256 516.365 665.909 501.095 622.356 482.913C614.909 479.805 607.431 476.767 600.041 473.528C598.217 472.728 595.436 472.725 595.336 468.147C636.385 481.585 677.548 492.722 720.706 498.484C774.563 504.746 824.658 497.295 869.602 466.069C910.89 437.382 936.113 397.315 952.027 350.548C961.639 322.298 968.169 293.308 973.087 263.923C975.382 250.212 973.859 249.23 960.507 246.441C933.261 240.749 905.885 236.041 878.265 232.707C813.538 224.893 751.051 230.034 693.283 263.922C662.588 281.928 634.558 303.154 610.412 329.379C608.762 331.172 607.502 333.521 603.986 334.052C604.032 329.641 606.964 326.854 609.187 324.09C651.318 271.725 702.123 231.772 767.666 212.447Z"></path>
</svg>
